<svg xmlns="http://www.w3.org/2000/svg" width="78.739" height="87.895" viewBox="0 0 78.739 87.895"><defs><style>.a{fill:#fefefe;}</style></defs><path class="a" d="M64.969,83.311,67.054,85.4a1.465,1.465,0,0,1-2.072,2.072L60.4,82.889a1.464,1.464,0,0,1,0-2.072l4.578-4.578a1.465,1.465,0,0,1,2.072,2.072l-2.069,2.069a36.481,36.481,0,0,0,35.825-36.432,36.075,36.075,0,0,0-7.721-22.432,1.465,1.465,0,0,1,2.308-1.8,39.37,39.37,0,0,1-30.427,63.6ZM90.606,18.056a1.479,1.479,0,1,0-1.091-2.514A1.5,1.5,0,0,0,90.606,18.056Zm-34.293,34.5H51.918a1.465,1.465,0,0,0,0,2.93h4.395a1.465,1.465,0,1,0,0-2.93ZM80.667,63.175A1.465,1.465,0,0,0,79.2,61.711H49.537a2.933,2.933,0,0,1-2.93-2.93V29.116a2.933,2.933,0,0,1,2.93-2.93h7.508V36.441A1.466,1.466,0,0,0,59.2,37.734l5.172-2.748,5.172,2.748a1.466,1.466,0,0,0,2.152-1.294V31.313a1.465,1.465,0,1,0-2.93,0V34l-3.708-1.97a1.465,1.465,0,0,0-1.375,0L59.975,34V26.186H79.2a2.933,2.933,0,0,1,2.93,2.93v26a1.465,1.465,0,0,0,2.93,0v-26a5.866,5.866,0,0,0-5.86-5.86H49.537a5.866,5.866,0,0,0-5.86,5.86V58.781a5.866,5.866,0,0,0,5.86,5.86H79.2A1.465,1.465,0,0,0,80.667,63.175ZM27.93,43.948A36.48,36.48,0,0,1,63.755,7.516L61.686,9.586a1.465,1.465,0,0,0,2.072,2.072l4.578-4.578a1.465,1.465,0,0,0,0-2.072L63.757.43A1.465,1.465,0,1,0,61.686,2.5L63.77,4.586a39.37,39.37,0,0,0-30.428,63.6,1.465,1.465,0,1,0,2.308-1.8A36.075,36.075,0,0,1,27.93,43.948Zm9.144,26.346a1.49,1.49,0,1,0,2.111-.011A1.465,1.465,0,0,0,37.074,70.295Z" transform="translate(-25 -0.001)"/></svg>