<svg xmlns="http://www.w3.org/2000/svg" width="87.053" height="60.359" viewBox="0 0 87.053 60.359"><defs><style>.a{fill:#fefefe;}</style></defs><g transform="translate(0 -78.5)"><g transform="translate(0 78.5)"><path class="a" d="M83.058,130.868H72.006V115.736h1.785a1.275,1.275,0,0,0,1.275-1.275V88.277A1.275,1.275,0,0,0,73.791,87H66.055V79.775A1.275,1.275,0,0,0,64.78,78.5h-13.6a1.275,1.275,0,0,0-1,.479L43.764,87H31.231V83.176A1.275,1.275,0,0,0,29.956,81.9h-10.2a1.275,1.275,0,0,0-1.275,1.275V87H13.262a1.275,1.275,0,0,0-1.275,1.275v26.184a1.275,1.275,0,0,0,1.275,1.275h1.445v15.132H4a4,4,0,0,0,0,7.991H70.731a1.275,1.275,0,1,0,0-2.55H4a1.445,1.445,0,1,1,0-2.89H83.058a1.445,1.445,0,1,1,0,2.89H76.133a1.275,1.275,0,0,0,0,2.55h6.925a4,4,0,1,0,0-7.991Zm-13.6,0h-3.4V115.736h3.4ZM51.791,81.05H63.5V87H47.03Zm-30.761,3.4h7.651V87H21.03Zm-6.492,5.1H72.516v23.634H14.537ZM35.62,122.027H29.33v-1.711H35.62Zm-6.291,2.55H35.62v1.711H29.33Zm6.291-6.812H29.33v-2.03H35.62Zm-13.347,9.188A1.275,1.275,0,0,0,21,128.228v2.64H17.258V115.736H21v7.017a1.275,1.275,0,0,0,2.55,0v-7.017h3.23v15.132h-3.23v-2.64A1.275,1.275,0,0,0,22.273,126.953Zm7.056,3.915v-2.03H35.62v2.03Zm14.622,0V122.2H58.4v8.671Zm17,0v-9.947a1.275,1.275,0,0,0-1.275-1.275h-17a1.275,1.275,0,0,0-1.275,1.275v9.947h-3.23V115.736H63.5v15.132Z" transform="translate(0 -78.5)"/><path class="a" d="M101.775,177.033H152.1a1.275,1.275,0,0,0,1.275-1.275V159.775A1.275,1.275,0,0,0,152.1,158.5h-3.335a1.275,1.275,0,1,0,0,2.55h2.06v13.432H138.416V161.05h4.842a1.275,1.275,0,1,0,0-2.55H101.775a1.275,1.275,0,0,0-1.275,1.275v15.982A1.275,1.275,0,0,0,101.775,177.033Zm34.09-2.55H118.013V161.05h17.853ZM103.05,161.05h12.412v13.432H103.05Z" transform="translate(-83.412 -144.898)"/></g></g></svg>