<svg xmlns="http://www.w3.org/2000/svg" width="71.527" height="49.594" viewBox="0 0 71.527 49.594"><defs><style>.a{fill:#D1AA60;}</style></defs><g transform="translate(0 -78.5)"><g transform="translate(0 78.5)"><path class="a" d="M68.244,121.528H59.163V109.094H60.63a1.048,1.048,0,0,0,1.048-1.048V86.533a1.048,1.048,0,0,0-1.048-1.048H54.274V79.548A1.048,1.048,0,0,0,53.226,78.5H42.05a1.048,1.048,0,0,0-.818.393l-5.273,6.592h-10.3V82.342a1.048,1.048,0,0,0-1.048-1.048H16.231a1.048,1.048,0,0,0-1.048,1.048v3.143H10.9a1.048,1.048,0,0,0-1.048,1.048v21.514a1.048,1.048,0,0,0,1.048,1.048h1.187v12.433h-8.8a3.283,3.283,0,0,0,0,6.566H58.115a1.048,1.048,0,1,0,0-2.1H3.283a1.187,1.187,0,1,1,0-2.375H68.244a1.187,1.187,0,1,1,0,2.375h-5.69a1.048,1.048,0,0,0,0,2.1h5.69a3.283,3.283,0,1,0,0-6.566Zm-11.176,0H54.274V109.094h2.794ZM42.553,80.6h9.625v4.89H38.642ZM17.279,83.39h6.287v2.1H17.279Zm-5.334,4.191H59.582V107H11.944Zm17.323,26.683H24.1v-1.406h5.169Zm-5.169,2.1h5.169v1.406H24.1Zm5.169-5.6H24.1v-1.668h5.169ZM18.3,118.311a1.048,1.048,0,0,0-1.048,1.048v2.169H14.18V109.094h3.073v5.765a1.048,1.048,0,0,0,2.1,0v-5.765H22v12.433H19.349v-2.169A1.048,1.048,0,0,0,18.3,118.311Zm5.8,3.217V119.86h5.169v1.668Zm12.014,0V114.4H47.987v7.125Zm13.97,0v-8.172a1.048,1.048,0,0,0-1.048-1.048H35.065a1.048,1.048,0,0,0-1.048,1.048v8.172H31.363V109.094H52.178v12.433Z" transform="translate(0 -78.5)"/><path class="a" d="M101.548,173.727H142.9a1.048,1.048,0,0,0,1.048-1.048V159.548A1.048,1.048,0,0,0,142.9,158.5h-2.74a1.048,1.048,0,1,0,0,2.1h1.692v11.036h-10.2V160.6h3.978a1.048,1.048,0,0,0,0-2.1H101.548a1.048,1.048,0,0,0-1.048,1.048V172.68A1.048,1.048,0,0,0,101.548,173.727Zm28.01-2.1H114.889V160.6h14.669ZM102.6,160.6h10.2v11.036H102.6Z" transform="translate(-86.46 -147.324)"/></g></g></svg>